<?xml version="1.0" encoding="utf-8"?>
<!-- Generator: Adobe Illustrator 19.1.0, SVG Export Plug-In . SVG Version: 6.00 Build 0)  -->
<svg version="1.2" baseProfile="tiny" id="Layer_1" xmlns="http://www.w3.org/2000/svg" xmlns:xlink="http://www.w3.org/1999/xlink"
	 x="0px" y="0px" viewBox="0.2 -0.1 33 33" xml:space="preserve">
<path fill="#00B39F" d="M16.8-0.1C7.6-0.1,0.2,7.3,0.2,16.4s7.4,16.5,16.5,16.5s16.5-7.4,16.5-16.5S25.9-0.1,16.8-0.1z M16.8,30.8
	c-8,0-14.4-6.4-14.4-14.4S8.8,2,16.8,2s14.4,6.4,14.4,14.4S24.7,30.8,16.8,30.8z"/>
<path fill="#00B39F" d="M24.3,12.8L15.1,22c-0.3,0.3-0.6,0.4-1,0.4c-0.4,0-0.7-0.1-1-0.4l-4-4c-0.5-0.5-0.5-1.5,0-2
	c0.5-0.5,1.5-0.5,2,0l3,3l8.2-8.2c0.5-0.5,1.5-0.5,2,0C24.8,11.3,24.8,12.1,24.3,12.8L24.3,12.8z"/>
<path fill="#00B39F" d="M16.8,16.3"/>
</svg>
