<?xml version="1.0" encoding="utf-8"?>
<!-- Generator: Adobe Illustrator 19.1.0, SVG Export Plug-In . SVG Version: 6.00 Build 0)  -->
<svg version="1.2" baseProfile="tiny" id="Layer_1" xmlns="http://www.w3.org/2000/svg" xmlns:xlink="http://www.w3.org/1999/xlink"
	 x="0px" y="0px" viewBox="0 0 792 612" xml:space="preserve">
<circle fill="#FFFFFF" cx="396" cy="306" r="15.5"/>
<g>
	<circle fill="none" cx="396" cy="306" r="15"/>
	<path fill="none" d="M369,279v54h54v-54H369z M396,323c-9.4,0-17-7.6-17-17s7.6-17,17-17s17,7.6,17,17S405.4,323,396,323z"/>
	<path fill="#03B29F" d="M396,289c-9.4,0-17,7.6-17,17s7.6,17,17,17s17-7.6,17-17S405.4,289,396,289z M396,321c-8.3,0-15-6.7-15-15
		c0-8.3,6.7-15,15-15s15,6.7,15,15C411,314.3,404.3,321,396,321z"/>
</g>
<g>
	<polygon fill="#03B29F" points="402.2,300.5 402.2,300.5 402.2,300.5 	"/>
	<path fill="#03B29F" d="M395.8,308.8C395.8,308.8,395.8,308.8,395.8,308.8l-1.7,2.2c0,0,0,0,0,0c0,0,0,0,0,0l-5-4.7
		c-0.2-0.2-0.5-0.2-0.7,0c-0.2,0.2-0.2,0.5,0,0.7l5,4.7c0.2,0.2,0.4,0.3,0.7,0.3c0,0,0,0,0.1,0c0.3,0,0.5-0.2,0.7-0.4l1.8-2.3
		c0,0,1.8-2.4,3.2-4.2c0,0,0,0,0,0c1.2-1.6,1.2-1.6,2.2-2.9c0.8-1,0.8-1,1-1.3c0.2-0.2,0.1-0.5-0.1-0.7c-0.2-0.2-0.5-0.1-0.7,0.1
		L395.8,308.8C395.8,308.8,395.8,308.8,395.8,308.8z"/>
</g>
<g>
	<path fill="none" d="M402.4,300.6l-6.4,8.3c0,0,0,0,0,0l-1.7,2.3c-0.1,0.1-0.1,0.1-0.2,0.1c-0.1,0-0.2,0-0.2-0.1l-5-4.7
		c-0.1-0.1-0.2-0.1-0.3,0c-0.1,0.1-0.1,0.2,0,0.3l5,4.7c0.1,0.1,0.3,0.2,0.5,0.2c0,0,0,0,0.1,0c0.2,0,0.4-0.1,0.5-0.3l1.8-2.3
		c0,0,6.4-8.3,6.4-8.3c0.1-0.1,0.1-0.3,0-0.3C402.6,300.5,402.5,300.5,402.4,300.6z"/>
	<path fill="none" d="M377.5,289.5v33.3h36.3v-33.3H377.5z M403.6,301.5c0,0-6.3,8.2-6.4,8.3l-1.8,2.3c-0.3,0.4-0.7,0.6-1.2,0.7
		l-0.1,0c-0.4,0-0.8-0.2-1.2-0.5l-5-4.7c-0.5-0.5-0.5-1.2-0.1-1.7c0.2-0.2,0.5-0.4,0.9-0.4c0.3,0,0.7,0.1,0.9,0.3l4.4,4.2l7.7-10
		c0.2-0.3,0.5-0.4,0.8-0.5c0.3,0,0.7,0.1,0.9,0.3C403.9,300.3,404,301,403.6,301.5z"/>
	<path fill="#03B29F" d="M402.5,299.6c-0.3,0-0.6,0.2-0.8,0.5l-7.7,10l-4.4-4.2c-0.2-0.2-0.6-0.4-0.9-0.3c-0.3,0-0.6,0.2-0.9,0.4
		c-0.4,0.5-0.4,1.3,0.1,1.7l5,4.7c0.3,0.3,0.7,0.5,1.2,0.5l0.1,0c0.5,0,0.9-0.3,1.2-0.7l1.8-2.3c0.1-0.1,6.4-8.3,6.4-8.3
		c0.4-0.5,0.3-1.3-0.2-1.7C403.1,299.6,402.8,299.5,402.5,299.6z M402.8,300.9c0,0-6.4,8.3-6.4,8.3l-1.8,2.3
		c-0.1,0.2-0.3,0.3-0.5,0.3c0,0,0,0-0.1,0c-0.2,0-0.4-0.1-0.5-0.2l-5-4.7c-0.1-0.1-0.1-0.2,0-0.3c0.1-0.1,0.2-0.1,0.3,0l5,4.7
		c0.1,0.1,0.1,0.1,0.2,0.1c0.1,0,0.1,0,0.2-0.1l1.7-2.3c0,0,0,0,0,0l6.4-8.3c0.1-0.1,0.2-0.1,0.3,0
		C402.8,300.7,402.9,300.8,402.8,300.9z"/>
</g>
</svg>
