<?xml version="1.0" encoding="UTF-8" standalone="no"?>
<svg width="168px" height="50px" viewBox="0 0 168 50" version="1.1" xmlns="http://www.w3.org/2000/svg" xmlns:xlink="http://www.w3.org/1999/xlink">
    <!-- Generator: Sketch 3.8.3 (29802) - http://www.bohemiancoding.com/sketch -->
    <title>Avatar_Flat_LimitedUse_Watson_Lockup_Pos_RGB_BETA copy</title>
    <desc>Created with Sketch.</desc>
    <defs></defs>
    <g id="Page-1" stroke="none" stroke-width="1" fill="none" fill-rule="evenodd">
        <g id="dash-copy-3" transform="translate(-805.000000, -31.000000)" fill="#000000">
            <g id="Nav-Header">
                <g id="Avatar_Flat_LimitedUse_Watson_Lockup_Pos_RGB_BETA-copy" transform="translate(805.000000, 31.000000)">
                    <g id="Lockup">
                        <path d="M86.5708185,41.6167665 L81.8775801,41.6167665 L78.230605,26.9461078 L78.1708185,26.9461078 L74.5836299,41.6167665 L69.8007117,41.6167665 L64.0911032,20.0598802 L68.8142349,20.0598802 L72.2220641,34.7305389 L72.2818505,34.7305389 L76.0185053,20.0598802 L80.4427046,20.0598802 L84.119573,34.9101796 L84.1793594,34.9101796 L87.7067616,20.0598802 L92.3701068,20.0598802 L86.5708185,41.6167665 L86.5708185,41.6167665 Z M92.3103203,30.8083832 C92.5494662,26.8263473 96.1366548,25.5988024 99.6341637,25.5988024 C102.74306,25.5988024 106.479715,26.2874251 106.479715,30.0299401 L106.479715,38.1437126 C106.479715,39.5508982 106.629181,40.988024 107.017794,41.6167665 L102.683274,41.6167665 C102.533808,41.1377246 102.414235,40.6287425 102.384342,40.1197605 C101.039146,41.5269461 99.0661922,42.0359281 97.1231317,42.0359281 C94.1338078,42.0359281 91.8320285,40.5688623 91.8320285,37.3652695 C91.8918149,30.2694611 102.384342,34.0718563 102.204982,30.5688623 C102.204982,28.742515 100.949466,28.4431138 99.424911,28.4431138 C97.7807829,28.4431138 96.7345196,29.1017964 96.5850534,30.8083832 L92.3103203,30.8083832 L92.3103203,30.8083832 Z M102.204982,33.9820359 C101.487544,34.6107784 99.9629893,34.6407186 98.6476868,34.8802395 C97.3323843,35.1197605 96.1067616,35.5988024 96.1067616,37.1856287 C96.1067616,38.7724551 97.3323843,39.1916168 98.7373665,39.1916168 C102.085409,39.1916168 102.204982,36.5568862 102.204982,35.5988024 L102.204982,33.9820359 L102.204982,33.9820359 Z M114.730249,26.0179641 L117.869039,26.0179641 L117.869039,28.8922156 L114.730249,28.8922156 L114.730249,36.6167665 C114.730249,38.0538922 115.088968,38.4431138 116.523843,38.4431138 C117.002135,38.4431138 117.450534,38.4131737 117.839146,38.3233533 L117.839146,41.6766467 C117.121708,41.7964072 116.195018,41.8263473 115.328114,41.8263473 C112.667616,41.8263473 110.425623,41.257485 110.425623,38.1137725 L110.425623,28.8922156 L107.824911,28.8922156 L107.824911,26.0179641 L110.425623,26.0179641 L110.425623,21.3473054 L114.700356,21.3473054 L114.700356,26.0179641 L114.730249,26.0179641 Z M123.369395,36.5568862 C123.369395,38.4131737 124.98363,39.1916168 126.657651,39.1916168 C127.853381,39.1916168 129.467616,38.7125749 129.467616,37.1856287 C129.467616,35.8982036 127.644128,35.3892216 124.624911,34.760479 C122.113879,34.1916168 119.692527,33.3832335 119.692527,30.5988024 C119.692527,26.6167665 123.130249,25.5988024 126.478292,25.5988024 C129.856228,25.5988024 133.024911,26.7365269 133.353737,30.5688623 L129.288256,30.5688623 C129.168683,28.9221557 127.913167,28.4431138 126.358719,28.4431138 C125.402135,28.4431138 123.96726,28.5928144 123.96726,29.8802395 C123.96726,31.4071856 126.418505,31.6167665 128.809964,32.2155689 C131.320996,32.7844311 133.742349,33.6826347 133.742349,36.5868263 C133.742349,40.6886228 130.15516,42.005988 126.627758,42.005988 C123.010676,42.005988 119.453381,40.6586826 119.303915,36.5269461 L123.369395,36.5269461 L123.369395,36.5568862 Z M143.248399,25.5988024 C148.15089,25.5988024 151.319573,28.8622754 151.319573,33.8323353 C151.319573,38.7724551 148.15089,42.0359281 143.248399,42.0359281 C138.375801,42.0359281 135.207117,38.7724551 135.207117,33.8323353 C135.207117,28.8622754 138.375801,25.5988024 143.248399,25.5988024 L143.248399,25.5988024 Z M143.248399,38.8023952 C146.177936,38.8023952 147.04484,36.3173653 147.04484,33.8323353 C147.04484,31.3473054 146.177936,28.8323353 143.248399,28.8323353 C140.348754,28.8323353 139.481851,31.3473054 139.481851,33.8323353 C139.481851,36.3173653 140.348754,38.8023952 143.248399,38.8023952 L143.248399,38.8023952 Z M153.382206,26.0179641 L157.447687,26.0179641 L157.447687,28.2035928 L157.537367,28.2035928 C158.613523,26.4071856 160.496797,25.5988024 162.290391,25.5988024 C166.834164,25.5988024 168,28.1736527 168,32.0359281 L168,41.6167665 L163.725267,41.6167665 L163.725267,32.8143713 C163.725267,30.239521 163.007829,28.9820359 160.975089,28.9820359 C158.643416,28.9820359 157.65694,30.2694611 157.65694,33.4431138 L157.65694,41.6167665 L153.382206,41.6167665 L153.382206,26.0179641 L153.382206,26.0179641 Z" id="Watson"></path>
                        <path d="M6.36725979,20.0598802 C6.18790036,20.0598802 6.00854093,20 5.82918149,19.9101796 L0.777224199,16.9760479 C0.269039146,16.6766467 0.0896797153,16.0479042 0.3886121,15.5389222 C0.687544484,15.0299401 1.31530249,14.8502994 1.82348754,15.1497006 L6.87544484,18.0838323 C7.38362989,18.3832335 7.56298932,19.011976 7.26405694,19.5209581 C7.08469751,19.8802395 6.72597865,20.0598802 6.36725979,20.0598802 L6.36725979,20.0598802 Z M15.544484,11.257485 C16.052669,10.9580838 16.2320285,10.3293413 15.9330961,9.82035928 L13.0035587,4.76047904 C12.7046263,4.25149701 12.0768683,4.07185629 11.5686833,4.37125749 C11.0604982,4.67065868 10.8811388,5.2994012 11.1800712,5.80838323 L14.1096085,10.8682635 C14.3188612,11.1976048 14.6476868,11.4071856 15.0362989,11.4071856 C15.2156584,11.4071856 15.3950178,11.3473054 15.544484,11.257485 L15.544484,11.257485 Z M27.9202847,7.15568862 L27.9202847,1.31736527 C27.9202847,0.748502994 27.4419929,0.269461078 26.8740214,0.269461078 C26.3060498,0.269461078 25.827758,0.748502994 25.827758,1.31736527 L25.827758,7.18562874 C25.827758,7.75449102 26.3060498,8.23353293 26.8740214,8.23353293 C27.4419929,8.23353293 27.9202847,7.75449102 27.9202847,7.15568862 L27.9202847,7.15568862 Z M39.5786477,10.8682635 L42.5081851,5.80838323 C42.8071174,5.2994012 42.627758,4.67065868 42.119573,4.37125749 C41.6113879,4.07185629 40.9836299,4.25149701 40.6846975,4.76047904 L37.7551601,9.82035928 C37.4562278,10.3293413 37.6355872,10.9580838 38.1437722,11.257485 C38.3231317,11.3473054 38.5024911,11.4071856 38.6818505,11.4071856 C39.0405694,11.4071856 39.3992883,11.1976048 39.5786477,10.8682635 L39.5786477,10.8682635 Z M47.8590747,19.9101796 L52.911032,16.9760479 C53.4192171,16.6766467 53.5985765,16.0479042 53.2996441,15.5389222 C53.0007117,15.0299401 52.3729537,14.8502994 51.8647687,15.1497006 L46.8128114,18.0838323 C46.3046263,18.3832335 46.1252669,19.011976 46.4241993,19.5209581 C46.633452,19.8502994 46.9622776,20.0598802 47.3508897,20.0598802 C47.5003559,20.0598802 47.7096085,20.0299401 47.8590747,19.9101796 L47.8590747,19.9101796 Z M27.7708185,12.2754491 C25.7978648,12.2754491 23.6156584,12.7245509 22.3302491,13.1437126 C22.2106762,13.1736527 22.0911032,13.2335329 22.0911032,13.3532934 C22.0911032,13.4730539 22.1807829,13.5329341 22.2704626,13.5329341 C22.3601423,13.5329341 22.6291815,13.4730539 22.8085409,13.4431138 C23.8846975,13.2634731 24.4825623,13.2035928 26.0370107,13.2035928 C27.8007117,13.2035928 29.594306,13.5628743 31.3281139,14.1616766 C24.452669,16.7365269 17.6669039,26.2874251 15.3053381,34.8203593 C12.794306,32.0359281 11.2398577,28.8622754 11.2398577,25.8383234 C11.2398577,20.8682635 15.3352313,17.8143713 21.2839858,17.8143713 C21.4932384,17.8143713 21.6128114,17.8143713 21.7323843,17.7844311 C21.8220641,17.754491 21.8818505,17.6946108 21.8818505,17.6047904 C21.8818505,17.4850299 21.7921708,17.4251497 21.6725979,17.4251497 C21.2839858,17.3652695 20.3871886,17.245509 19.4007117,17.245509 C13.4818505,17.245509 9.1772242,20.2994012 9.1772242,25.8383234 C9.1772242,29.6107784 11.3594306,33.7125749 14.797153,37.1556886 C14.5879004,38.3532934 14.4683274,39.5209581 14.4683274,40.6287425 C14.4683274,41.0479042 14.4982206,41.9760479 14.6775801,42.9041916 C12.6448399,41.0778443 11.0604982,38.9221557 10.1935943,36.6167665 C10.0142349,36.1676647 9.71530249,35.3293413 9.62562278,35 C9.59572954,34.8203593 9.53594306,34.760479 9.38647687,34.760479 C9.26690391,34.760479 9.20711744,34.8502994 9.20711744,34.9700599 C9.20711744,35.1197605 9.26690391,35.508982 9.29679715,35.6287425 C10.4626335,41.9461078 16.7103203,49.8802395 26.8740214,49.8802395 C38.1437722,49.8802395 45.9459075,40.5389222 45.9459075,30.8083832 C45.886121,20.8083832 38.233452,12.2754491 27.7708185,12.2754491 L27.7708185,12.2754491 Z M26.8142349,47.7844311 C23.1373665,47.7844311 20.1181495,46.4670659 18.7729537,45.7784431 C17.0092527,44.8203593 16.5309609,43.0838323 16.5309609,40.8682635 C16.5309609,40.239521 16.5608541,39.5808383 16.6505338,38.8922156 C21.1345196,42.6347305 27.083274,45.2694611 33.0619217,45.2694611 C34.3772242,45.2694611 35.5729537,45.0598802 36.6790036,44.7305389 L36.6790036,44.7305389 C34.6761566,46.2275449 31.1487544,47.7844311 26.8142349,47.7844311 L26.8142349,47.7844311 Z M32.9423488,43.2335329 C27.2925267,43.2335329 21.313879,40.4491018 17.0391459,36.6167665 C19.2512456,26.7365269 28.0996441,15.7784431 33.7793594,15.7784431 C34.4370107,15.7784431 34.975089,15.8982036 35.6925267,16.3473054 C36.8284698,17.0658683 37.8448399,17.8742515 38.7117438,18.7125749 C41.3124555,21.257485 43.7637011,25.5988024 43.7637011,30.8982036 C43.7637011,35.0299401 42.3587189,38.2634731 40.8640569,40.2694611 C39.2199288,42.3652695 36.1708185,43.2335329 32.9423488,43.2335329 L32.9423488,43.2335329 Z" id="Avatar_Flat"></path>
                    </g>
                </g>
            </g>
        </g>
    </g>
</svg>